<svg width="37" height="38" viewBox="0 0 37 38" fill="none" xmlns="http://www.w3.org/2000/svg">
<path d="M18.5 25.9057L25.2488 19L18.5 12.0943L16.4096 14.2333L19.575 17.4723H11.6321V20.5276H19.575L16.4096 23.7666L18.5 25.9057ZM18.5 37.3333C16.0415 37.3333 13.7224 36.852 11.5425 35.8895C9.36266 34.927 7.4614 33.6158 5.83875 31.9557C4.2164 30.2953 2.93491 28.3498 1.99428 26.1193C1.05366 23.8887 0.583344 21.5156 0.583344 19C0.583344 16.4639 1.05366 14.0805 1.99428 11.85C2.93491 9.6194 4.2164 7.67913 5.83875 6.02913C7.4614 4.37913 9.36266 3.07288 11.5425 2.11038C13.7224 1.14788 16.0415 0.666626 18.5 0.666626C20.9785 0.666626 23.3077 1.14788 25.4875 2.11038C27.6674 3.07288 29.5636 4.37913 31.1761 6.02913C32.7886 7.67913 34.0651 9.6194 35.0057 11.85C35.9464 14.0805 36.4167 16.4639 36.4167 19C36.4167 21.5156 35.9464 23.8887 35.0057 26.1193C34.0651 28.3498 32.7886 30.2953 31.1761 31.9557C29.5636 33.6158 27.6674 34.927 25.4875 35.8895C23.3077 36.852 20.9785 37.3333 18.5 37.3333ZM18.5 34.2776C22.6606 34.2776 26.1891 32.7906 29.0856 29.8166C31.9822 26.8427 33.4304 23.2371 33.4304 19C33.4304 14.7427 31.9822 11.1321 29.0856 8.16817C26.1891 5.20428 22.6606 3.72233 18.5 3.72233C14.3592 3.72233 10.8356 5.20428 7.92918 8.16817C5.0228 11.1321 3.5696 14.7427 3.5696 19C3.5696 23.2371 5.0228 26.8427 7.92918 29.8166C10.8356 32.7906 14.3592 34.2776 18.5 34.2776Z" fill="#1C1B1F"/>
</svg>
